{
    "asset" : {
        "generator" : "Khronos glTF Blender I/O v0.9.36",
        "version" : "2.0"
    },
    "scene" : 0,
    "scenes" : [
        {
            "extras" : {
                "glTF2ExportSettings" : {
                    "export_all_influences" : 1,
                    "export_apply" : 1,
                    "export_extras" : 1,
                    "export_force_sampling" : 0,
                    "export_format" : "GLTF_SEPARATE",
                    "export_frame_step" : 1,
                    "export_tangents" : 1
                }
            },
            "name" : "Scene",
            "nodes" : [
                0,
                1,
                12
            ]
        }
    ],
    "nodes" : [
        {
            "name" : "Light",
            "rotation" : [
                0.16907575726509094,
                0.7558803558349609,
                -0.27217137813568115,
                0.570947527885437
            ],
            "translation" : [
                4.076245307922363,
                5.903861999511719,
                -1.0054539442062378
            ]
        },
        {
            "name" : "Camera",
            "rotation" : [
                0.033819783478975296,
                0.848325252532959,
                -0.5255668759346008,
                0.05458901450037956
            ],
            "translation" : [
                0.672849714756012,
                2.4267261028289795,
                -4.312047958374023
            ]
        },
        {
            "mesh" : 0,
            "name" : "Object_5"
        },
        {
            "children" : [
                2
            ],
            "name" : "Base_2"
        },
        {
            "mesh" : 1,
            "name" : "Object_7"
        },
        {
            "mesh" : 2,
            "name" : "Object_8",
            "translation" : [
                0,
                -0.000519285851623863,
                9.881257574306801e-05
            ]
        },
        {
            "mesh" : 3,
            "name" : "Object_9"
        },
        {
            "children" : [
                4,
                5,
                6
            ],
            "name" : "Frame_3",
            "translation" : [
                0,
                0.05535070598125458,
                -0.13128095865249634
            ]
        },
        {
            "children" : [
                3,
                7
            ],
            "name" : "GLTF_SceneRootNode",
            "rotation" : [
                0.7071068286895752,
                0,
                0,
                0.7071068286895752
            ]
        },
        {
            "children" : [
                8
            ],
            "name" : "root"
        },
        {
            "children" : [
                9
            ],
            "name" : "RootNode (model correction matrix)"
        },
        {
            "children" : [
                10
            ],
            "name" : "RootNode (gltf orientation matrix)",
            "rotation" : [
                -0.7071068286895752,
                0,
                0,
                0.7071068286895752
            ]
        },
        {
            "children" : [
                11
            ],
            "name" : "Yup2Zup",
            "rotation" : [
                0.7071067690849304,
                0,
                0,
                0.7071067690849304
            ]
        }
    ],
    "animations" : [
        {
            "channels" : [
                {
                    "sampler" : 0,
                    "target" : {
                        "node" : 7,
                        "path" : "rotation"
                    }
                }
            ],
            "name" : "Action_Frame_3",
            "samplers" : [
                {
                    "input" : 20,
                    "interpolation" : "LINEAR",
                    "output" : 21
                }
            ]
        },
        {
            "channels" : [
                {
                    "sampler" : 0,
                    "target" : {
                        "node" : 7,
                        "path" : "rotation"
                    }
                }
            ],
            "name" : "FrameAction_Frame_3",
            "samplers" : [
                {
                    "input" : 22,
                    "interpolation" : "LINEAR",
                    "output" : 23
                }
            ]
        }
    ],
    "materials" : [
        {
            "doubleSided" : true,
            "emissiveFactor" : [
                0,
                0,
                0
            ],
            "name" : "Frame",
            "pbrMetallicRoughness" : {
                "baseColorFactor" : [
                    0.010021899826824665,
                    0.010021899826824665,
                    0.010021899826824665,
                    1
                ],
                "metallicFactor" : 0,
                "roughnessFactor" : 1
            }
        },
        {
            "doubleSided" : true,
            "emissiveFactor" : [
                0.08752422779798508,
                1,
                0.1567152738571167
            ],
            "name" : "Power",
            "pbrMetallicRoughness" : {
                "baseColorFactor" : [
                    0.03725772723555565,
                    0.8000000715255737,
                    0.09777066111564636,
                    1
                ],
                "metallicFactor" : 0.15000000596046448,
                "roughnessFactor" : 0.20833300054073334
            }
        },
        {
            "doubleSided" : true,
            "emissiveFactor" : [
                1,
                0.12129995226860046,
                0.16809387505054474
            ],
            "name" : "Screen",
            "pbrMetallicRoughness" : {
                "baseColorFactor" : [
                    0.018848799169063568,
                    0.018848799169063568,
                    0.018848799169063568,
                    1
                ],
                "metallicFactor" : 0.3583329916000366,
                "roughnessFactor" : 0.10833299905061722
            }
        }
    ],
    "meshes" : [
        {
            "name" : "Mesh_0",
            "primitives" : [
                {
                    "attributes" : {
                        "POSITION" : 0,
                        "NORMAL" : 1,
                        "TANGENT" : 2,
                        "TEXCOORD_0" : 3
                    },
                    "indices" : 4,
                    "material" : 0
                }
            ]
        },
        {
            "name" : "Mesh_1",
            "primitives" : [
                {
                    "attributes" : {
                        "POSITION" : 5,
                        "NORMAL" : 6,
                        "TANGENT" : 7,
                        "TEXCOORD_0" : 8
                    },
                    "indices" : 9,
                    "material" : 0
                }
            ]
        },
        {
            "name" : "Mesh_2",
            "primitives" : [
                {
                    "attributes" : {
                        "POSITION" : 10,
                        "NORMAL" : 11,
                        "TANGENT" : 12,
                        "TEXCOORD_0" : 13
                    },
                    "indices" : 14,
                    "material" : 1
                }
            ]
        },
        {
            "name" : "Mesh_3",
            "primitives" : [
                {
                    "attributes" : {
                        "POSITION" : 15,
                        "NORMAL" : 16,
                        "TANGENT" : 17,
                        "TEXCOORD_0" : 18
                    },
                    "indices" : 19,
                    "material" : 2
                }
            ]
        }
    ],
    "accessors" : [
        {
            "bufferView" : 0,
            "componentType" : 5126,
            "count" : 454,
            "max" : [
                0.13119645416736603,
                0.09012725949287415,
                1.4901161193847656e-08
            ],
            "min" : [
                -0.13119621574878693,
                -0.06717762351036072,
                -0.14608238637447357
            ],
            "type" : "VEC3"
        },
        {
            "bufferView" : 1,
            "componentType" : 5126,
            "count" : 454,
            "type" : "VEC3"
        },
        {
            "bufferView" : 2,
            "componentType" : 5126,
            "count" : 454,
            "type" : "VEC4"
        },
        {
            "bufferView" : 3,
            "componentType" : 5126,
            "count" : 454,
            "type" : "VEC2"
        },
        {
            "bufferView" : 4,
            "componentType" : 5123,
            "count" : 504,
            "type" : "SCALAR"
        },
        {
            "bufferView" : 5,
            "componentType" : 5126,
            "count" : 584,
            "max" : [
                0.32857412099838257,
                0.02303437888622284,
                0.06993862986564636
            ],
            "min" : [
                -0.3323257863521576,
                -0.07019104063510895,
                -0.338778555393219
            ],
            "type" : "VEC3"
        },
        {
            "bufferView" : 6,
            "componentType" : 5126,
            "count" : 584,
            "type" : "VEC3"
        },
        {
            "bufferView" : 7,
            "componentType" : 5126,
            "count" : 584,
            "type" : "VEC4"
        },
        {
            "bufferView" : 8,
            "componentType" : 5126,
            "count" : 584,
            "type" : "VEC2"
        },
        {
            "bufferView" : 9,
            "componentType" : 5123,
            "count" : 636,
            "type" : "SCALAR"
        },
        {
            "bufferView" : 10,
            "componentType" : 5126,
            "count" : 4,
            "max" : [
                -0.29449933767318726,
                -0.06817297637462616,
                0.06703760474920273
            ],
            "min" : [
                -0.3080972135066986,
                -0.06858415901660919,
                0.06414859741926193
            ],
            "type" : "VEC3"
        },
        {
            "bufferView" : 11,
            "componentType" : 5126,
            "count" : 4,
            "type" : "VEC3"
        },
        {
            "bufferView" : 12,
            "componentType" : 5126,
            "count" : 4,
            "type" : "VEC4"
        },
        {
            "bufferView" : 13,
            "componentType" : 5126,
            "count" : 4,
            "type" : "VEC2"
        },
        {
            "bufferView" : 14,
            "componentType" : 5123,
            "count" : 6,
            "type" : "SCALAR"
        },
        {
            "bufferView" : 15,
            "componentType" : 5126,
            "count" : 6,
            "max" : [
                0.31281980872154236,
                -0.0055244117975234985,
                0.05326038599014282
            ],
            "min" : [
                -0.3165714740753174,
                -0.05904476344585419,
                -0.3227933943271637
            ],
            "type" : "VEC3"
        },
        {
            "bufferView" : 16,
            "componentType" : 5126,
            "count" : 6,
            "type" : "VEC3"
        },
        {
            "bufferView" : 17,
            "componentType" : 5126,
            "count" : 6,
            "type" : "VEC4"
        },
        {
            "bufferView" : 18,
            "componentType" : 5126,
            "count" : 6,
            "type" : "VEC2"
        },
        {
            "bufferView" : 19,
            "componentType" : 5123,
            "count" : 6,
            "type" : "SCALAR"
        },
        {
            "bufferView" : 20,
            "componentType" : 5126,
            "count" : 43,
            "max" : [
                10.416666666666666
            ],
            "min" : [
                0.041666666666666664
            ],
            "type" : "SCALAR"
        },
        {
            "bufferView" : 21,
            "componentType" : 5126,
            "count" : 43,
            "type" : "VEC4"
        },
        {
            "bufferView" : 22,
            "componentType" : 5126,
            "count" : 42,
            "max" : [
                5.833333333333333
            ],
            "min" : [
                0.041666666666666664
            ],
            "type" : "SCALAR"
        },
        {
            "bufferView" : 23,
            "componentType" : 5126,
            "count" : 42,
            "type" : "VEC4"
        }
    ],
    "bufferViews" : [
        {
            "buffer" : 0,
            "byteLength" : 5448,
            "byteOffset" : 0
        },
        {
            "buffer" : 0,
            "byteLength" : 5448,
            "byteOffset" : 5448
        },
        {
            "buffer" : 0,
            "byteLength" : 7264,
            "byteOffset" : 10896
        },
        {
            "buffer" : 0,
            "byteLength" : 3632,
            "byteOffset" : 18160
        },
        {
            "buffer" : 0,
            "byteLength" : 1008,
            "byteOffset" : 21792
        },
        {
            "buffer" : 0,
            "byteLength" : 7008,
            "byteOffset" : 22800
        },
        {
            "buffer" : 0,
            "byteLength" : 7008,
            "byteOffset" : 29808
        },
        {
            "buffer" : 0,
            "byteLength" : 9344,
            "byteOffset" : 36816
        },
        {
            "buffer" : 0,
            "byteLength" : 4672,
            "byteOffset" : 46160
        },
        {
            "buffer" : 0,
            "byteLength" : 1272,
            "byteOffset" : 50832
        },
        {
            "buffer" : 0,
            "byteLength" : 48,
            "byteOffset" : 52104
        },
        {
            "buffer" : 0,
            "byteLength" : 48,
            "byteOffset" : 52152
        },
        {
            "buffer" : 0,
            "byteLength" : 64,
            "byteOffset" : 52200
        },
        {
            "buffer" : 0,
            "byteLength" : 32,
            "byteOffset" : 52264
        },
        {
            "buffer" : 0,
            "byteLength" : 12,
            "byteOffset" : 52296
        },
        {
            "buffer" : 0,
            "byteLength" : 72,
            "byteOffset" : 52308
        },
        {
            "buffer" : 0,
            "byteLength" : 72,
            "byteOffset" : 52380
        },
        {
            "buffer" : 0,
            "byteLength" : 96,
            "byteOffset" : 52452
        },
        {
            "buffer" : 0,
            "byteLength" : 48,
            "byteOffset" : 52548
        },
        {
            "buffer" : 0,
            "byteLength" : 12,
            "byteOffset" : 52596
        },
        {
            "buffer" : 0,
            "byteLength" : 172,
            "byteOffset" : 52608
        },
        {
            "buffer" : 0,
            "byteLength" : 688,
            "byteOffset" : 52780
        },
        {
            "buffer" : 0,
            "byteLength" : 168,
            "byteOffset" : 53468
        },
        {
            "buffer" : 0,
            "byteLength" : 672,
            "byteOffset" : 53636
        }
    ],
    "buffers" : [
        {
            "byteLength" : 54308,
            "uri" : "screen.bin"
        }
    ]
}
